# xmcd
#
# Track frame offsets: 
#        150
#        12482
#        25752
#        39452
#        50570
#        62805
#        74825
#        93427
#        105102
#        118370
#        132282
#        142940
#        154387
#        168477
#        178087
#        191230
#        203080
#        215677
#        228025
#        240690
#
# Disc length: 3476 seconds
#
# Revision: 1
# Processed by: cddbd v1.5.1PL0 Copyright (c) Steve Scherf et al.
# Submitted via: ExactAudioCopy v0.95a5
#
DISCID=260d9214
DTITLE=Various Artist - Country Love - CD3
DYEAR=1998
DGENRE=Country
TTITLE0=Stand By Your Man - Lynn Andersson
TTITLE1=Till I Waltz Again With You - Slim Whitman
TTITLE2=Have I Told You Lately That I Love You - Miki and Griff
TTITLE3=Once A Day - George Jones
TTITLE4=Rain And Tears - Ray Price
TTITLE5=Misty Blue - Billie Joe Spears
TTITLE6=Mary Ann Regrets - Roy Clark
TTITLE7=I've Loved And Lost Again - Patsy Cline
TTITLE8=Walking The Floor Over You - Justin Tubb
TTITLE9=Cryin' Time - The Kendalls
TTITLE10=Send Me The Pillow That You Dream On - Johnny Tillotson
TTITLE11=There's A Way - Timi Yuro, Willie Nelson
TTITLE12=My Elusive Dreams - Roger Miller
TTITLE13=From A Jack To A King - Ned Miller
TTITLE14=Love Me Tender - Stu Stevens
TTITLE15=Take These Chanins From My Heart - Roy Drusky
TTITLE16=The Shelter Of Your Arms - Willie Nelson
TTITLE17=Single Girl - Sandy Posey
TTITLE18=Half As Much - Slim Whitman
TTITLE19=You Don't Know Me - Charlie Rich
EXTD=
EXTT0=
EXTT1=
EXTT2=
EXTT3=
EXTT4=
EXTT5=
EXTT6=
EXTT7=
EXTT8=
EXTT9=
EXTT10=
EXTT11=
EXTT12=
EXTT13=
EXTT14=
EXTT15=
EXTT16=
EXTT17=
EXTT18=
EXTT19=
PLAYORDER=
